PathFileType	4	(X/Y/Z)	 s03c0402.trc
DataRate	CameraRate	NumFrames	NumMarkers	Units	OrigDataRate	OrigDataStartFrame	OrigNumFrames
200	200	5	50	mm	200	1751	2000
Frame#	Time	racr			lacr			c7			jug			rlel			rdr			llel			ldr			s2			lic			ric			lasi			rasi			rpsi			lpsi			rgt			lgt			rth1			rth2			rth3			rth4			rlfc			rmfc			rsh1			rsh2			rsh3			rsh4			rlmal			rcal			rtoe			rmt5			rmt1			lth1			lth2			lth4			lth3			llfc			lmfc			lsh1			lsh2			lsh3			lsh4			llmal			lcal			ltoe			lmt1			lmt5			SBIKE			LBIKE			RBIKE			
		X1	Y1	Z1	X2	Y2	Z2	X3	Y3	Z3	X4	Y4	Z4	X5	Y5	Z5	X6	Y6	Z6	X7	Y7	Z7	X8	Y8	Z8	X9	Y9	Z9	X10	Y10	Z10	X11	Y11	Z11	X12	Y12	Z12	X13	Y13	Z13	X14	Y14	Z14	X15	Y15	Z15	X16	Y16	Z16	X17	Y17	Z17	X18	Y18	Z18	X19	Y19	Z19	X20	Y20	Z20	X21	Y21	Z21	X22	Y22	Z22	X23	Y23	Z23	X24	Y24	Z24	X25	Y25	Z25	X26	Y26	Z26	X27	Y27	Z27	X28	Y28	Z28	X29	Y29	Z29	X30	Y30	Z30	X31	Y31	Z31	X32	Y32	Z32	X33	Y33	Z33	X34	Y34	Z34	X35	Y35	Z35	X36	Y36	Z36	X37	Y37	Z37	X38	Y38	Z38	X39	Y39	Z39	X40	Y40	Z40	X41	Y41	Z41	X42	Y42	Z42	X43	Y43	Z43	X44	Y44	Z44	X45	Y45	Z45	X46	Y46	Z46	X47	Y47	Z47	X48	Y48	Z48	X49	Y49	Z49	X50	Y50	Z50	
1751	8.7550	677.211359	1466.994827	-7.475862	660.705217	1498.619905	-335.435227	620.239643	1560.542855	-160.676065	639.898458	1387.388197	-176.086623	578.627262	1201.768334	81.655732	738.142113	984.152827	-10.114809	614.139927	1244.249823	-460.645996	739.971332	975.653821	-434.220223	93.276211	1282.399803	-157.993936	263.518486	1308.158692	-344.805691	276.362914	1268.087091	18.459104	278.279128	1229.027409	-309.971607	293.596294	1193.610635	-35.650601	130.132287	1320.457949	-106.103791	128.963372	1333.927833	-182.447353	189.290663	1156.709268	16.275755	201.418495	1236.532235	-369.966442	210.099416	1001.576159	23.886111	248.239152	921.690198	15.224828	245.055105	837.801935	-3.840019	283.607895	930.146176	8.720714	254.184247	718.497852	-48.514445	267.912716	707.248895	-159.884449	204.223746	556.108060	-26.357812	209.385344	467.857258	-40.391889	168.701436	389.614149	-46.934301	239.730655	464.716266	-65.008032	131.414914	263.205171	-75.610721	64.738274	239.097901	-110.731125	361.414821	143.984265	-111.779089	242.286997	163.610377	-41.943506	272.935174	174.608828	-154.496226	286.708723	1145.120892	-433.966975	362.045197	1111.635375	-461.298241	387.985948	1135.121422	-448.845768	409.587710	1040.356729	-487.616614	513.223419	950.946508	-509.563559	541.018039	923.051319	-383.630974	384.714764	833.881886	-505.104547	344.340991	763.158477	-476.592181	267.260941	721.145469	-455.344022	370.901912	742.310568	-457.463907	179.781818	633.212403	-418.996910	104.968957	620.673151	-366.526356	379.955082	485.058434	-354.172498	292.494005	521.699353	-314.838720	263.563691	508.037175	-431.239390	-216.927540	945.910810	-232.230728	-7.978397	84.204905	-436.839932	-13.843241	80.948299	-36.557127	
1752	8.7600	676.270868	1467.269906	-7.588864	659.720199	1498.878482	-335.534705	619.344082	1560.926846	-160.724041	638.972075	1387.904892	-176.176379	578.472461	1201.941682	81.301973	738.178172	984.189210	-10.179913	614.008155	1244.311917	-460.379163	740.031146	975.672530	-434.254213	92.182196	1282.781722	-157.596132	262.203579	1308.935649	-344.613679	276.327459	1268.220375	18.615101	277.161623	1229.725416	-309.892023	292.922048	1193.739347	-35.810850	129.217877	1320.805003	-105.660236	128.089337	1334.280421	-182.395473	188.548005	1156.869693	16.252346	200.384887	1237.315575	-369.848668	209.350464	1001.844053	23.778258	247.557465	921.968232	15.094862	244.361461	838.063005	-3.985608	282.788347	930.528362	8.456489	253.487261	718.826695	-48.614984	267.033082	707.672930	-160.072810	203.618329	556.482518	-26.479814	208.864091	468.237126	-40.397144	168.370851	389.882538	-46.986600	239.259555	465.053304	-65.064097	131.329482	263.378798	-75.692425	64.664792	239.434947	-110.787980	361.157373	143.822627	-111.792386	242.050067	163.632117	-41.969802	272.759834	174.605497	-154.467653	285.870692	1145.790204	-433.918798	361.233480	1112.505549	-461.407349	386.842834	1135.453603	-447.125328	408.785717	1041.215310	-487.813279	512.557815	951.854603	-509.398551	540.303370	923.829688	-383.399266	384.280639	834.353393	-504.966362	344.104331	763.496454	-476.526667	267.097840	721.304982	-455.294426	370.714990	742.689009	-457.521192	179.852313	633.146262	-419.003939	105.097036	620.495206	-366.528371	380.270370	485.201550	-354.151587	292.751332	521.730655	-314.808309	263.809641	508.083707	-431.268904	-216.923279	945.913942	-232.222366	-7.974714	84.205814	-436.863132	-13.833763	80.944803	-36.556378	
1753	8.7650	675.291878	1467.626463	-7.748586	658.774080	1499.114565	-335.631493	618.423872	1561.324826	-160.767784	638.070635	1388.394145	-176.242976	578.272502	1202.043946	80.985636	738.207641	984.212680	-10.217800	613.888519	1244.348831	-460.102121	740.065922	975.671638	-434.254187	91.199450	1283.280019	-157.136982	260.863119	1309.757227	-344.384003	275.190068	1268.325322	18.480916	276.037495	1230.358889	-309.973294	292.293269	1193.940948	-35.933410	128.289323	1321.099483	-105.174333	126.892376	1334.623007	-187.325873	187.781763	1156.995714	16.203833	199.287165	1238.065396	-369.744265	208.550420	1002.068684	23.611917	246.789168	922.121162	14.865201	243.581186	838.297739	-4.159959	282.105800	930.784803	8.282458	252.733447	719.100591	-48.761896	266.246825	707.954912	-160.236391	202.946160	556.855056	-26.529797	208.339235	468.548040	-40.449744	167.948369	390.154783	-47.012552	238.795666	465.403353	-64.990335	131.210592	263.499665	-75.787535	64.562680	239.773133	-110.821085	360.857601	143.579558	-111.785450	241.815085	163.652763	-41.992350	272.497428	174.653211	-154.511780	285.002374	1146.480006	-433.933465	360.376878	1113.242637	-461.368687	385.963327	1136.117442	-447.058070	408.064023	1041.875396	-487.492344	511.885381	952.559151	-509.304549	539.494961	924.602434	-383.382471	383.824922	834.802546	-504.842453	343.775060	763.945361	-476.431073	266.917664	721.466503	-455.236258	370.514546	743.032673	-457.601930	179.927872	633.030018	-419.021109	105.218441	620.224092	-366.473975	380.594552	485.350621	-354.115310	293.005536	521.757403	-314.802532	264.114766	508.074105	-431.262224	-216.919212	945.910750	-232.230411	-7.974925	84.208506	-436.844680	-13.838591	80.935186	-36.563535	
1754	8.7700	674.407656	1467.946525	-7.858752	657.733711	1499.357355	-335.719353	617.517987	1561.691333	-160.778897	637.111236	1388.792639	-176.382704	578.096842	1202.152253	80.727924	738.231916	984.219162	-10.225405	613.761391	1244.378335	-459.763462	740.097499	975.674350	-434.249471	90.452802	1283.627176	-156.876922	259.504466	1310.526995	-344.159729	274.654157	1268.388198	18.500478	274.907691	1231.078375	-309.890140	291.613549	1194.131839	-36.141088	127.377252	1321.433488	-104.627209	126.060146	1335.086718	-186.867389	187.055005	1157.111783	16.217860	198.196661	1238.793549	-369.562296	207.731057	1002.277496	23.494169	246.015856	922.347087	14.654655	242.837024	838.490470	-4.308647	281.229083	930.985200	7.968701	251.948893	719.397237	-48.885584	265.398910	708.192452	-160.417086	202.126641	557.155127	-26.684838	207.804981	468.807672	-40.543522	167.501961	390.366451	-47.041373	238.299644	465.781644	-64.880349	131.030101	263.691436	-75.811165	64.421548	240.153527	-110.828444	360.486252	143.316157	-111.808907	241.507755	163.717532	-41.987507	272.226322	174.656563	-154.520542	284.061242	1147.112628	-433.957298	359.529262	1113.911340	-461.332733	385.046440	1136.859564	-447.019173	407.228935	1042.600387	-487.441076	511.179022	953.407372	-509.220562	538.725609	925.194010	-383.274139	383.285473	835.356144	-504.783194	343.432081	764.215570	-476.352745	266.775086	721.483786	-454.971894	370.262311	743.499242	-457.652604	179.982325	632.922369	-419.019012	105.349467	619.940578	-366.489695	380.992965	485.386351	-353.742214	293.253210	521.816391	-314.767313	264.443839	508.065294	-431.238077	-216.913793	945.899020	-232.245932	-7.980023	84.185106	-436.863292	-13.838517	80.932058	-36.572645	
1755	8.7750	673.462639	1468.216364	-7.981556	656.671057	1499.659634	-335.791350	616.588113	1562.055627	-160.754196	636.223428	1389.132609	-176.422712	577.937749	1202.244031	80.512022	738.215231	984.213075	-10.231077	613.608062	1244.394583	-459.456691	740.108925	975.672714	-434.213797	89.749147	1283.982432	-156.739058	258.164397	1311.326311	-343.910284	274.154836	1268.414381	18.540596	273.785536	1231.714758	-309.974390	290.949134	1194.267533	-36.385500	126.463170	1321.702360	-104.104435	125.274434	1335.334107	-186.656851	186.280350	1157.183043	16.181583	197.106348	1239.499262	-369.502506	206.860322	1002.437492	23.345770	245.123159	922.585042	14.441050	241.896583	838.721230	-4.514999	280.470898	931.182215	7.755940	251.047095	719.684666	-49.010191	264.417700	708.615598	-160.660028	201.447698	557.418342	-26.749061	207.211032	469.061005	-40.526084	167.034067	390.540875	-47.127821	237.762820	466.058185	-64.904767	130.840477	263.889120	-75.893111	64.253941	240.501820	-110.859997	360.133588	143.110503	-111.803088	241.190615	163.736063	-41.986625	271.924986	174.607268	-154.535061	283.123543	1147.701801	-433.905945	358.570962	1114.630909	-461.349909	384.146260	1137.548686	-446.988253	406.375004	1043.338244	-487.459565	510.419580	954.152013	-509.193837	537.916125	925.983599	-383.278448	382.767850	835.799954	-504.684497	343.112055	764.606648	-476.415256	266.564603	721.626027	-454.928068	369.988900	743.890037	-457.666885	180.052548	632.798665	-419.021291	105.488843	619.627896	-366.519328	381.376599	485.581961	-353.829584	293.503427	521.873651	-314.785941	264.800306	508.084310	-431.242077	-216.903962	945.896126	-232.250493	-7.979456	84.190287	-436.857127	-13.836211	80.930077	-36.572067	
